<?xml version="1.0" encoding="UTF-8"?>
<svg version="1.1" xmlns="http://www.w3.org/2000/svg" width="720" height="712">
<path d="M0 0 C237.6 0 475.2 0 720 0 C720 234.96 720 469.92 720 712 C482.4 712 244.8 712 0 712 C0 477.04 0 242.08 0 0 Z " fill="#FDFDFD" transform="translate(0,0)"/>
<path d="M0 0 C0.95519531 -0.00773438 1.91039062 -0.01546875 2.89453125 -0.0234375 C10.39331683 -0.0028647 17.30127919 0.53673236 23.6875 4.875 C24.36941406 5.32101563 25.05132812 5.76703125 25.75390625 6.2265625 C33.7483379 13.04882872 37.72481187 21.06143395 41.8125 30.5625 C42.42025323 31.94543046 43.02940766 33.3277459 43.63989258 34.70947266 C44.88184408 37.52566425 46.11608449 40.34503265 47.34375 43.16748047 C49.47443284 48.06123074 51.65240196 52.93324396 53.83032227 57.80615234 C59.98803264 71.59431159 66.0552135 85.42296847 72.125 99.25 C79.0473216 98.80495646 85.91525776 98.18650114 92.79296875 97.27734375 C116.30369371 94.20910972 139.4365973 93.792151 163.125 94.25 C163.125 94.91 163.125 95.57 163.125 96.25 C161.27455078 96.27126953 161.27455078 96.27126953 159.38671875 96.29296875 C145.21843635 96.60826106 131.25319307 97.9845039 117.1875 99.625 C116.27414886 99.73000824 115.36079773 99.83501648 114.41976929 99.94320679 C104.37051681 101.10665511 94.38881923 102.41960849 84.44874573 104.31674194 C81.24130723 104.92266349 78.4112606 105.25 75.125 105.25 C83.23914516 123.84702717 91.39662895 142.42302326 99.65722656 160.95556641 C101.14567499 164.29640525 102.63186036 167.6382411 104.1171875 170.98046875 C104.61428223 172.09897217 105.11137695 173.21747559 105.62353516 174.36987305 C106.61600514 176.60414083 107.6078777 178.83867409 108.59912109 181.07348633 C110.94711601 186.3644204 113.30242258 191.65174534 115.6829834 196.92810059 C116.81164572 199.43086982 117.93625646 201.93544989 119.06054688 204.44018555 C119.85932364 206.21516522 120.66397955 207.98749542 121.46875 209.75976562 C121.94828125 210.82904297 122.4278125 211.89832031 122.921875 213 C123.34823242 213.94359375 123.77458984 214.8871875 124.21386719 215.859375 C125.125 218.25 125.125 218.25 125.125 221.25 C154.90554137 207.45869037 184.55042777 191.46035833 208.125 168.25 C209.0221875 167.37730469 209.919375 166.50460937 210.84375 165.60546875 C220.76716325 155.39810241 225.96562689 144.4937268 227.125 130.25 C231.25127518 131.62542506 232.11966571 133.63321858 234.109375 137.37890625 C236.83834977 145.09350799 235.73123596 153.65492954 233.125 161.25 C214.62122147 198.11522031 171.85940204 222.76725744 136.125 240.25 C136.70737297 244.91868998 138.00722068 248.6465902 139.96875 252.9140625 C140.39603645 253.85182526 140.39603645 253.85182526 140.83195496 254.80853271 C141.75644967 256.83374608 142.69071845 258.85428562 143.625 260.875 C144.27003704 262.28432497 144.91431887 263.69399583 145.55786133 265.10400391 C146.83171246 267.89310425 148.10882343 270.6806679 149.38916016 273.46679688 C151.55221547 278.17633757 153.68790366 282.89799641 155.8125 287.625 C156.16006348 288.39706787 156.50762695 289.16913574 156.86572266 289.96459961 C160.24414833 297.48474796 163.57098792 305.02769343 166.875 312.58081055 C169.30445504 318.1330563 171.76206415 323.6699899 174.26953125 329.1875 C174.77887207 330.31776611 175.28821289 331.44803223 175.81298828 332.61254883 C176.79070741 334.78050012 177.77696871 336.94462532 178.77294922 339.10424805 C179.21268066 340.08433838 179.65241211 341.06442871 180.10546875 342.07421875 C180.49629639 342.93104248 180.88712402 343.78786621 181.28979492 344.6706543 C182.31084228 347.82393268 182.6085571 349.955515 182.125 353.25 C179.52797731 356.53784389 178.02312328 358.07339333 173.86193848 358.89164734 C172.62681519 358.89864151 171.39169189 358.90563568 170.11914062 358.9128418 C169.43393845 358.92320969 168.74873627 358.93357758 168.04277039 358.94425964 C165.78831283 358.97126159 163.53580992 358.96168544 161.28125 358.94921875 C159.70853129 358.95513012 158.13581708 358.96237787 156.56311035 358.97090149 C153.27116403 358.98276973 149.97989434 358.97609441 146.68798828 358.95678711 C142.4740366 358.93389349 138.2621004 358.96068793 134.04834747 359.00184917 C130.80196487 359.02745146 127.55606309 359.02484115 124.30961609 359.01395607 C122.7563036 359.01247147 121.20295389 359.02013548 119.6497345 359.03720665 C117.4755405 359.05722594 115.30489119 359.03876044 113.13085938 359.01049805 C111.89573608 359.00874069 110.66061279 359.00698334 109.38806152 359.00517273 C104.77438935 357.93742718 103.77894085 356.11693509 101.125 352.25 C99.42749023 348.94189453 99.42749023 348.94189453 97.93359375 345.3828125 C97.52561302 344.42518509 97.52561302 344.42518509 97.10939026 343.44821167 C96.25065178 341.42777574 95.40600649 339.40183597 94.5625 337.375 C93.44019297 334.7092408 92.31231446 332.04586127 91.18359375 329.3828125 C90.78130051 328.4291127 90.78130051 328.4291127 90.37088013 327.45614624 C88.96395051 324.1408066 87.49855754 320.88073342 85.86328125 317.671875 C84.30535519 314.60503629 83.04748096 311.60369757 81.875 308.375 C79.22150864 301.32640685 76.17970246 294.47589918 73.08984375 287.609375 C72.77128418 286.89974609 72.45272461 286.19011719 72.12451172 285.45898438 C71.42107308 283.9043403 70.70829153 282.35390667 69.98876953 280.80664062 C69.62251465 280.00935547 69.25625977 279.21207031 68.87890625 278.390625 C68.54318604 277.66907227 68.20746582 276.94751953 67.86157227 276.20410156 C67.125 274.25 67.125 274.25 67.125 271.25 C66.30636475 271.51627197 65.48772949 271.78254395 64.64428711 272.05688477 C22.88256496 285.62513778 -18.53803441 297.01724485 -61.9375 304.125 C-62.60084351 304.23459045 -63.26418701 304.34418091 -63.94763184 304.45709229 C-65.83005173 304.76612435 -67.7138342 305.06682116 -69.59765625 305.3671875 C-70.66765869 305.53847168 -71.73766113 305.70975586 -72.84008789 305.88623047 C-75.883143 306.25097603 -78.81336595 306.31478132 -81.875 306.25 C-82.12121094 307.05308594 -82.36742187 307.85617187 -82.62109375 308.68359375 C-84.14610777 313.02109469 -86.0185771 317.13756273 -87.9375 321.3125 C-90.47724906 326.85579641 -92.96387671 332.40442148 -95.2578125 338.0546875 C-95.64445068 338.99691162 -96.03108887 339.93913574 -96.42944336 340.90991211 C-97.1679473 342.72028904 -97.893405 344.5360599 -98.60375977 346.35766602 C-98.94463623 347.18709717 -99.2855127 348.01652832 -99.63671875 348.87109375 C-99.92506592 349.5973999 -100.21341309 350.32370605 -100.51049805 351.07202148 C-102.4310401 354.13753511 -104.82819847 356.34734612 -107.875 358.25 C-111.26504517 358.87818909 -111.26504517 358.87818909 -115.01025391 358.88110352 C-116.04068565 358.89183647 -116.04068565 358.89183647 -117.0919342 358.90278625 C-119.34583541 358.91959408 -121.59772543 358.90032502 -123.8515625 358.87890625 C-125.42524377 358.87973551 -126.99892496 358.88219703 -128.57260132 358.88621521 C-131.86279522 358.88906749 -135.15230619 358.87442549 -138.44238281 358.84692383 C-142.65717298 358.81278483 -146.87074708 358.81888276 -151.08559608 358.8375864 C-154.33190027 358.84815773 -157.57792178 358.83921851 -160.82419968 358.82420158 C-162.37831152 358.81902401 -163.93245292 358.81949645 -165.48656082 358.82574654 C-167.6578646 358.83120301 -169.82742964 358.81081623 -171.99853516 358.78344727 C-173.23286285 358.77724869 -174.46719055 358.77105011 -175.73892212 358.7646637 C-179.46996518 358.15235989 -180.67033306 357.28026573 -182.875 354.25 C-183.69463138 347.80810379 -182.08974878 343.43283467 -179.3125 337.6875 C-178.95260986 336.91245117 -178.59271973 336.13740234 -178.22192383 335.33886719 C-177.48068793 333.74676341 -176.73288053 332.15770253 -175.97851562 330.57177734 C-174.9337697 328.37365041 -173.90835724 326.16777183 -172.890625 323.95703125 C-170.30143629 318.34543275 -167.6591054 312.76804675 -164.875 307.25 C-165.65101563 307.21261719 -166.42703125 307.17523438 -167.2265625 307.13671875 C-188.68359383 305.83086123 -213.00134261 300.00898761 -228.88671875 284.55078125 C-231.88539315 281.08080242 -234.03996294 277.4400013 -235.875 273.25 C-236.42027344 272.08597656 -236.42027344 272.08597656 -236.9765625 270.8984375 C-239.68696965 262.90862861 -238.47022213 253.61119064 -235.25390625 245.95703125 C-230.05836029 235.75727672 -222.89043936 227.31017424 -214.875 219.25 C-214.3893457 218.76031738 -213.90369141 218.27063477 -213.40332031 217.76611328 C-188.14335112 192.64693736 -154.31072919 173.75299476 -121.74902344 159.83203125 C-116.0266507 157.37030997 -110.51169323 154.58771541 -104.99609375 151.6953125 C-102.18460962 150.39337367 -100.01689184 149.85976553 -97 149.375 C-93.64010951 148.30846595 -92.88230986 147.26169277 -90.97265625 144.20703125 C-89.14531163 140.53543955 -87.5852924 136.75517626 -86.02197266 132.96533203 C-83.90548413 127.95477745 -81.5532055 123.0517169 -79.25 118.125 C-74.11014244 107.00533691 -69.06567735 95.84348209 -64.0324707 84.67529297 C-56.98225836 69.03455744 -49.88238438 53.41561268 -42.546875 37.90625 C-41.27911589 35.18313974 -40.10448906 32.43051091 -38.953125 29.65625 C-33.52494261 16.68605754 -27.68965037 6.94843804 -14.3125 1.13671875 C-9.51412472 -0.10104396 -4.9343706 -0.0396335 0 0 Z " fill="#CE46D7" transform="translate(359.875,147.75)"/>
<path d="M0 0 C0.95519531 -0.00773438 1.91039062 -0.01546875 2.89453125 -0.0234375 C10.39331683 -0.0028647 17.30127919 0.53673236 23.6875 4.875 C24.71037109 5.54402344 24.71037109 5.54402344 25.75390625 6.2265625 C33.7483379 13.04882872 37.72481187 21.06143395 41.8125 30.5625 C42.42025323 31.94543046 43.02940766 33.3277459 43.63989258 34.70947266 C44.88184408 37.52566425 46.11608449 40.34503265 47.34375 43.16748047 C49.47443284 48.06123074 51.65240196 52.93324396 53.83032227 57.80615234 C59.98803264 71.59431159 66.0552135 85.42296847 72.125 99.25 C79.0473216 98.80495646 85.91525776 98.18650114 92.79296875 97.27734375 C116.30369371 94.20910972 139.4365973 93.792151 163.125 94.25 C163.125 94.91 163.125 95.57 163.125 96.25 C161.27455078 96.27126953 161.27455078 96.27126953 159.38671875 96.29296875 C145.21843635 96.60826106 131.25319307 97.9845039 117.1875 99.625 C116.27414886 99.73000824 115.36079773 99.83501648 114.41976929 99.94320679 C104.37051681 101.10665511 94.38881923 102.41960849 84.44874573 104.31674194 C81.24130723 104.92266349 78.4112606 105.25 75.125 105.25 C83.23914516 123.84702717 91.39662895 142.42302326 99.65722656 160.95556641 C101.14567499 164.29640525 102.63186036 167.6382411 104.1171875 170.98046875 C104.61428223 172.0988916 105.11137695 173.21731445 105.62353516 174.36962891 C106.61624722 176.60460308 107.60812361 178.83994864 108.59912109 181.07568359 C110.94269947 186.35937351 113.29587629 191.63815733 115.6829834 196.90231323 C116.53577273 198.78409527 117.38553289 200.66721581 118.234375 202.55078125 C119.30645135 204.92721716 120.38433421 207.3010444 121.46875 209.671875 C121.94828125 210.73792969 122.4278125 211.80398438 122.921875 212.90234375 C123.34823242 213.84070068 123.77458984 214.77905762 124.21386719 215.74584961 C125.125 218.25 125.125 218.25 125.125 222.25 C113.27074414 228.02211996 101.43804581 233.52924739 89.125 238.25 C87.49905712 238.91436376 85.87396937 239.58082669 84.25 240.25 C79.64412484 242.09079665 74.98391971 243.77189111 70.3125 245.4375 C69.21736084 245.83098633 69.21736084 245.83098633 68.10009766 246.23242188 C67.40062012 246.47927734 66.70114258 246.72613281 65.98046875 246.98046875 C65.04690552 247.31147583 65.04690552 247.31147583 64.09448242 247.64916992 C61.79531546 248.35057687 59.48680936 248.81020777 57.125 249.25 C53.21893677 240.893392 49.47342878 232.4934963 45.875 224 C40.72875246 211.92154707 35.47525363 199.89211865 30.1875 187.875 C23.21929154 172.03644016 16.30940432 156.17416799 9.44238281 140.29150391 C6.68949523 133.93578235 3.91074825 127.59137601 1.125 121.25 C-3.01664329 129.34830003 -7.0605295 137.40837257 -10.4609375 145.8515625 C-12.70619174 151.24761552 -15.14855492 156.55482902 -17.57788086 161.87011719 C-19.4335363 165.95329148 -21.21319102 170.04472973 -22.85546875 174.21875 C-24.9208192 179.44731834 -27.25227154 184.53003698 -29.625 189.625 C-33.62125443 198.27489545 -37.54192318 206.95411747 -41.3984375 215.66699219 C-42.72371248 218.66089386 -44.05755187 221.65075364 -45.3984375 224.63769531 C-48.85232154 232.34610133 -52.23778893 240.07221409 -55.47314453 247.87533569 C-57.09586438 251.77096652 -58.75531701 255.65038793 -60.41967773 259.52838135 C-61.21808135 261.41397717 -61.99977751 263.30674188 -62.76391602 265.20648193 C-68.78073267 280.13601344 -68.78073267 280.13601344 -73.86157227 282.83862305 C-76.99453843 283.39564373 -79.7068238 283.45553303 -82.875 283.25 C-84.22970783 283.3546971 -85.58330766 283.4775052 -86.93359375 283.62890625 C-88.04863281 283.68949219 -89.16367187 283.75007813 -90.3125 283.8125 C-94.80588146 284.04977587 -94.80588146 284.04977587 -99.23674011 284.75828552 C-101.96303624 285.26640805 -104.44486155 285.37026798 -107.21606445 285.36352539 C-108.2567659 285.36344986 -109.29746735 285.36337433 -110.3697052 285.36329651 C-111.4813353 285.35813522 -112.59296539 285.35297394 -113.73828125 285.34765625 C-114.88540085 285.3462413 -116.03252045 285.34482635 -117.21440125 285.34336853 C-120.87212754 285.33777861 -124.52979225 285.32522789 -128.1875 285.3125 C-130.66992099 285.3074837 -133.15234294 285.30292102 -135.63476562 285.29882812 C-141.7148647 285.28781247 -147.79492795 285.2710843 -153.875 285.25 C-150.84289589 274.7395867 -150.84289589 274.7395867 -148.640625 269.98828125 C-148.23529541 269.10543457 -147.82996582 268.22258789 -147.41235352 267.31298828 C-146.98752686 266.40532715 -146.5627002 265.49766602 -146.125 264.5625 C-145.67890381 263.59554199 -145.23280762 262.62858398 -144.77319336 261.63232422 C-143.48068305 258.83495098 -142.17951235 256.04179259 -140.875 253.25 C-140.26685887 251.94404218 -139.65877669 250.6380569 -139.05078125 249.33203125 C-137.95360465 246.98093854 -136.85457675 244.63070907 -135.75390625 242.28125 C-126.56926836 222.62342797 -117.66317851 202.83291936 -108.70166016 183.0725708 C-107.93814513 181.3892186 -107.17417136 179.7060745 -106.41015625 178.02294922 C-101.24280519 166.6702925 -101.24280519 166.6702925 -96.375 155.1875 C-94.00914779 149.42123648 -91.33701688 143.8188131 -88.65307617 138.19604492 C-80.19789299 120.47041226 -72.10101244 102.57870542 -64.03222656 84.67480469 C-56.98215909 69.03420416 -49.88230615 53.41544728 -42.546875 37.90625 C-41.27911589 35.18313974 -40.10448906 32.43051091 -38.953125 29.65625 C-33.52494261 16.68605754 -27.68965037 6.94843804 -14.3125 1.13671875 C-9.51412472 -0.10104396 -4.9343706 -0.0396335 0 0 Z " fill="#6541F6" transform="translate(359.875,147.75)"/>
<path d="M0 0 C2.86596448 2.47263772 4.07175982 5.0215182 5.5390625 8.484375 C6.27274048 10.19826416 6.27274048 10.19826416 7.02124023 11.94677734 C7.28121796 12.56333191 7.54119568 13.17988647 7.80905151 13.81512451 C8.64372897 15.79441239 9.48682672 17.7699196 10.33227539 19.74462891 C11.24682154 21.88093575 12.16082123 24.01746002 13.07234192 26.15505981 C16.45603551 34.08800563 19.90400296 41.99265055 23.3553772 49.89633179 C24.44256425 52.38659998 25.52846316 54.87742623 26.61401367 57.3684082 C30.01372742 65.16807186 33.42032275 72.96461962 36.84375 80.75390625 C42.26602627 93.09468083 47.66466682 105.44268376 52.875 117.875 C53.29837646 118.88038818 53.72175293 119.88577637 54.15795898 120.92163086 C54.53637939 121.83178955 54.9147998 122.74194824 55.3046875 123.6796875 C55.63452637 124.47101074 55.96436523 125.26233398 56.30419922 126.07763672 C57 128 57 128 57 130 C37.97165214 136.35193149 18.92583041 142.12163629 -0.51220703 147.09326172 C-2.89296469 147.71219872 -5.26885136 148.35010426 -7.64013672 149.00439453 C-16.07289375 151.32773896 -24.49090125 153.19445911 -33.08935547 154.75537109 C-35.13236919 155.12633808 -37.17366505 155.50579627 -39.21484375 155.88671875 C-62.21469808 160.15163359 -62.21469808 160.15163359 -70 160 C-69.37736535 156.21761199 -68.27633385 153.05937625 -66.69140625 149.57421875 C-65.95543213 147.94468262 -65.95543213 147.94468262 -65.20458984 146.28222656 C-64.6627002 145.0959668 -64.12081055 143.90970703 -63.5625 142.6875 C-62.98854513 141.42049637 -62.41515594 140.15323635 -61.84228516 138.88574219 C-60.58525865 136.10615798 -59.32550799 133.32783007 -58.06396484 130.55029297 C-54.70666632 123.15431496 -51.37470869 115.74689401 -48.04104614 108.34024048 C-46.87686144 105.75413499 -45.71175697 103.16844514 -44.54663086 100.58276367 C-39.75149498 89.93448927 -34.99912175 79.26937625 -30.34716797 68.55761719 C-28.60459332 64.56041128 -26.83257463 60.60603445 -24.85546875 56.71875 C-23.24160448 53.54545736 -21.91154518 50.34720718 -20.6875 47 C-16.46000569 35.79584329 -11.46932511 24.91723142 -6.421875 14.0625 C-4.25175968 9.38840547 -2.12605783 4.69426042 0 0 Z " fill="#FCFBFE" transform="translate(360,268)"/>
<path d="M0 0 C1.2958578 2.33979598 2.40503966 4.6097621 3.4765625 7.05078125 C3.80307297 7.77199661 4.12958344 8.49321198 4.46598816 9.23628235 C5.52901759 11.59065437 6.57705683 13.95137934 7.625 16.3125 C8.35411829 17.93515738 9.08418262 19.55738999 9.81518555 21.17919922 C11.24916964 24.36484151 12.67747808 27.55291897 14.10009766 30.74365234 C15.61121019 34.13256017 17.13401133 37.51588697 18.66796875 40.89453125 C23.10539773 50.67287629 27.44683493 60.49388305 31.75048828 70.33178711 C34.17970824 75.8837398 36.63721437 81.42032047 39.14453125 86.9375 C39.65387207 88.06776611 40.16321289 89.19803223 40.68798828 90.36254883 C41.66570741 92.53050012 42.65196871 94.69462532 43.64794922 96.85424805 C44.08768066 97.83433838 44.52741211 98.81442871 44.98046875 99.82421875 C45.37129639 100.68104248 45.76212402 101.53786621 46.16479492 102.4206543 C47.18584228 105.57393268 47.4835571 107.705515 47 111 C44.40297731 114.28784389 42.89812328 115.82339333 38.73693848 116.64164734 C37.50181519 116.64864151 36.26669189 116.65563568 34.99414062 116.6628418 C34.30893845 116.67320969 33.62373627 116.68357758 32.91777039 116.69425964 C30.66331283 116.72126159 28.41080992 116.71168544 26.15625 116.69921875 C24.58353129 116.70513012 23.01081708 116.71237787 21.43811035 116.72090149 C18.14616403 116.73276973 14.85489434 116.72609441 11.56298828 116.70678711 C7.3490366 116.68389349 3.1371004 116.71068793 -1.07665253 116.75184917 C-4.32303513 116.77745146 -7.56893691 116.77484115 -10.81538391 116.76395607 C-12.3686964 116.76247147 -13.92204611 116.77013548 -15.4752655 116.78720665 C-17.6494595 116.80722594 -19.82010881 116.78876044 -21.99414062 116.76049805 C-23.84682556 116.75786201 -23.84682556 116.75786201 -25.73693848 116.75517273 C-30.35061065 115.68742718 -31.34605915 113.86693509 -34 110 C-35.69750977 106.69189453 -35.69750977 106.69189453 -37.19140625 103.1328125 C-37.4633934 102.49439423 -37.73538055 101.85597595 -38.01560974 101.19821167 C-38.87434822 99.17777574 -39.71899351 97.15183597 -40.5625 95.125 C-41.68480703 92.4592408 -42.81268554 89.79586127 -43.94140625 87.1328125 C-44.20960175 86.49701263 -44.47779724 85.86121277 -44.75411987 85.20614624 C-46.16104949 81.8908066 -47.62644246 78.63073342 -49.26171875 75.421875 C-50.81964481 72.35503629 -52.07751904 69.35369757 -53.25 66.125 C-55.57954525 59.92725923 -58.21229874 53.90215758 -60.96972656 47.88330078 C-63.92779564 41.36271359 -66.47395925 34.69814905 -69 28 C-68.15405273 27.66266846 -67.30810547 27.32533691 -66.43652344 26.9777832 C-63.23798966 25.70181884 -60.03978931 24.4250253 -56.84179688 23.14770508 C-55.46887863 22.59953125 -54.09583579 22.05166935 -52.72265625 21.50415039 C-48.75531226 19.92214297 -44.79050246 18.33405974 -40.82931519 16.73669434 C-39.14730143 16.05932063 -37.46350414 15.38638009 -35.77954102 14.71386719 C-27.32656632 11.28030088 -19.28594018 7.16507816 -11.20898438 2.93359375 C-10.18998047 2.41152344 -9.17097656 1.88945312 -8.12109375 1.3515625 C-7.2077124 0.87541504 -6.29433105 0.39926758 -5.35327148 -0.09130859 C-3 -1 -3 -1 0 0 Z " fill="#7844F6" transform="translate(495,390)"/>
<path d="M0 0 C-2.3104141 7.54258899 -5.4355315 14.50417627 -8.8125 21.625 C-9.98603999 24.1223109 -11.15523238 26.62164864 -12.32421875 29.12109375 C-12.62561768 29.76458267 -12.9270166 30.40807159 -13.23754883 31.07106018 C-16.59446951 38.24888294 -19.86724644 45.46423595 -23.125 52.6875 C-23.41703308 53.33454895 -23.70906616 53.9815979 -24.00994873 54.64825439 C-28.50291018 64.60936724 -32.91892567 74.60302812 -37.30029297 84.61376953 C-40.22583912 91.28462767 -43.25200821 97.89645454 -46.3671875 104.48046875 C-48.5931096 109.27844916 -50.69785624 114.12674393 -52.78027344 118.98852539 C-54.89615058 123.89615058 -54.89615058 123.89615058 -56 125 C-73.95946525 126.85970794 -94.27840056 121.90417133 -108.5 110.6875 C-113.50417731 105.95438229 -115.64084655 100.82833338 -116.5 94.0625 C-115.66676163 80.46189949 -105.44192355 68.81246198 -96 60 C-95.195625 59.175 -94.39125 58.35 -93.5625 57.5 C-92.716875 56.675 -91.87125 55.85 -91 55 C-90.39929688 54.40316406 -89.79859375 53.80632812 -89.1796875 53.19140625 C-71.33375925 36.24710155 -25.54458251 0 0 0 Z " fill="#FDFBFE" transform="translate(262,307)"/>
<path d="M0 0 C-0.65666971 5.08919024 -2.85984827 9.3983833 -5 14 C-7.56514111 19.56444671 -10.08199381 25.13035513 -12.38671875 30.80859375 C-12.77279297 31.75025391 -13.15886719 32.69191406 -13.55664062 33.66210938 C-14.29401784 35.47180373 -15.0186332 37.28676657 -15.72851562 39.10742188 C-16.06947266 39.93693359 -16.41042969 40.76644531 -16.76171875 41.62109375 C-17.1942395 42.71055298 -17.1942395 42.71055298 -17.63549805 43.82202148 C-19.5560401 46.88753511 -21.95319847 49.09734612 -25 51 C-28.39004517 51.62818909 -28.39004517 51.62818909 -32.13525391 51.63110352 C-33.16568565 51.64183647 -33.16568565 51.64183647 -34.2169342 51.65278625 C-36.47083541 51.66959408 -38.72272543 51.65032502 -40.9765625 51.62890625 C-42.55024377 51.62973551 -44.12392496 51.63219703 -45.69760132 51.63621521 C-48.98779522 51.63906749 -52.27730619 51.62442549 -55.56738281 51.59692383 C-59.78217298 51.56278483 -63.99574708 51.56888276 -68.21059608 51.5875864 C-71.45690027 51.59815773 -74.70292178 51.58921851 -77.94919968 51.57420158 C-79.50331152 51.56902401 -81.05745292 51.56949645 -82.61156082 51.57574654 C-84.7828646 51.58120301 -86.95242964 51.56081623 -89.12353516 51.53344727 C-90.35786285 51.52724869 -91.59219055 51.52105011 -92.86392212 51.5146637 C-96.59496518 50.90235989 -97.79533306 50.03026573 -100 47 C-100.81961023 40.55826998 -99.21496096 36.18264167 -96.4375 30.4375 C-96.07760986 29.66317627 -95.71771973 28.88885254 -95.34692383 28.09106445 C-94.6055319 26.49976437 -93.8577222 24.91143854 -93.10351562 23.32617188 C-92.05516545 21.11628681 -91.03083947 18.89714309 -90.015625 16.671875 C-88.3773593 13.09728273 -86.73579467 9.52871677 -85 6 C-84.70150146 5.11965088 -84.40300293 4.23930176 -84.09545898 3.33227539 C-82 1 -82 1 -79.83604431 0.57218933 C-76.8548122 0.43432506 -73.91311569 0.46606931 -70.9296875 0.546875 C-69.26524094 0.56104462 -69.26524094 0.56104462 -67.56716919 0.57550049 C-64.00237666 0.61014922 -60.43923261 0.67876348 -56.875 0.75 C-52.22665911 0.81667045 -47.57821574 0.8701381 -42.9296875 0.921875 C-41.24234749 0.94410378 -41.24234749 0.94410378 -39.5209198 0.96678162 C-31.812838 1.04784923 -24.19749609 0.81479773 -16.51245117 0.23364258 C-11.00722814 -0.13255596 -5.51591096 -0.086336 0 0 Z " fill="#4F3AF1" transform="translate(277,455)"/>
<path d="M0 0 C5.49834786 3.26957205 10.06950215 8.11529933 12.48046875 14.08984375 C13.34602149 21.69865622 13.30107155 28.86145429 8.48046875 35.08984375 C3.34763628 40.78144026 -2.40711322 43.56644509 -9.95703125 44.52734375 C-17.93740935 43.54729732 -22.98277312 40.28367198 -28.109375 34.1875 C-32.31093231 27.93753802 -32.37760669 21.40560033 -31.51953125 14.08984375 C-29.1631264 7.74878863 -24.38820708 3.51741639 -18.7578125 -0.015625 C-13.17779399 -2.24568475 -5.60820191 -2.0259086 0 0 Z " fill="#FB5CC9" transform="translate(574.51953125,223.91015625)"/>
<path d="M0 0 C4.12627518 1.37542506 4.99466571 3.38321858 6.984375 7.12890625 C9.71334977 14.84350799 8.60623596 23.40492954 6 31 C-11.57067642 66.00619378 -49.9948319 87.78606497 -83 106 C-83.73299316 106.40734375 -84.46598633 106.8146875 -85.22119141 107.234375 C-87.10612331 108.23806794 -89.05028488 109.12880613 -91 110 C-91.99 109.67 -92.98 109.34 -94 109 C-93.36835938 108.6596875 -92.73671875 108.319375 -92.0859375 107.96875 C-87.79424593 105.6435684 -83.51256971 103.30949117 -79.29296875 100.85546875 C-78.67309082 100.49582031 -78.05321289 100.13617188 -77.41455078 99.765625 C-76.19823407 99.05757667 -74.98427662 98.34545681 -73.77294922 97.62890625 C-70.89484392 95.95557006 -68.30342772 94.56004057 -65 94 C-65 93.34 -65 92.68 -65 92 C-62.35261084 90.5393715 -61.10551666 90 -58 90 C-58 89.34 -58 88.68 -58 88 C-55.8828125 86.4921875 -55.8828125 86.4921875 -53.125 84.875 C-52.22007812 84.33617187 -51.31515625 83.79734375 -50.3828125 83.2421875 C-48 82 -48 82 -46 82 C-46 81.34 -46 80.68 -46 80 C-43.953125 78.37890625 -43.953125 78.37890625 -41.25 76.5625 C-37.46187759 74.00482951 -37.46187759 74.00482951 -33.796875 71.27734375 C-32 70 -32 70 -30 70 C-30 69.34 -30 68.68 -30 68 C-28.13671875 66.37890625 -28.13671875 66.37890625 -25.6875 64.5625 C-22.36091496 62.09023023 -22.36091496 62.09023023 -19.33203125 59.27734375 C-18 58 -18 58 -16 58 C-16 57.34 -16 56.68 -16 56 C-15.34 56 -14.68 56 -14 56 C-14 55.34 -14 54.68 -14 54 C-13.34 54 -12.68 54 -12 54 C-11.74605469 53.43023437 -11.49210938 52.86046875 -11.23046875 52.2734375 C-9.85384171 49.72995515 -8.20847668 47.80779437 -6.3125 45.625 C0.44913476 37.2593278 6.70473427 27.11718313 6 16 C5.50681568 12.28689111 4.8395846 8.64976448 4 5 C3.34 5 2.68 5 2 5 C1.92523437 5.66644531 1.85046875 6.33289063 1.7734375 7.01953125 C0.13655452 18.49376001 -4.96584409 26.41247674 -12.8515625 34.73046875 C-14.63774423 36.61732617 -16.26007603 38.53217651 -17.875 40.5625 C-21.98747863 45.36972979 -27.00512377 49.15755696 -32 53 C-32.56928223 53.43892578 -33.13856445 53.87785156 -33.72509766 54.33007812 C-41.74899397 60.46972341 -49.97931818 65.99728055 -58.7109375 71.078125 C-61.21089902 72.53891012 -63.64264999 74.03922595 -66.0625 75.625 C-70.15201954 78.22009993 -74.50958531 80.28492392 -78.85644531 82.40576172 C-82.1421464 84.02204325 -85.26455077 85.72210592 -88.3125 87.75 C-92.26871762 90.35029054 -96.46981075 91.71015445 -101 93 C-101 92.34 -101 91.68 -101 91 C-100.47792969 90.74420166 -99.95585937 90.48840332 -99.41796875 90.22485352 C-70.73684316 76.13229958 -41.9511273 60.59654528 -19 38 C-17.65421875 36.69095703 -17.65421875 36.69095703 -16.28125 35.35546875 C-6.35783675 25.14810241 -1.15937311 14.2437268 0 0 Z " fill="#ED69C6" transform="translate(587,278)"/>
<path d="M0 0 C2.86698759 3.40939065 4.5083429 7.17027016 6.1875 11.25 C6.46013672 11.8996875 6.73277344 12.549375 7.01367188 13.21875 C7.68076842 14.81041896 8.34107445 16.40493103 9 18 C15.9223216 17.55495646 22.79025776 16.93650114 29.66796875 16.02734375 C53.17869371 12.95910972 76.3115973 12.542151 100 13 C100 13.66 100 14.32 100 15 C98.14955078 15.02126953 98.14955078 15.02126953 96.26171875 15.04296875 C82.09343635 15.35826106 68.12819307 16.7345039 54.0625 18.375 C53.14914886 18.48000824 52.23579773 18.58501648 51.29476929 18.69320679 C41.24551681 19.85665511 31.26381923 21.16960849 21.32374573 23.06674194 C18.11630723 23.67266349 15.2862606 24 12 24 C12.42410156 24.95890137 12.84820312 25.91780273 13.28515625 26.90576172 C14.85429152 30.45621779 16.41860152 34.00878231 17.98144531 37.56201172 C18.65916131 39.10100534 19.33819312 40.63942021 20.01855469 42.17724609 C20.99498599 44.38489179 21.9667014 46.59456015 22.9375 48.8046875 C23.24373291 49.49432587 23.54996582 50.18396423 23.86547852 50.89450073 C26 55.77225659 26 55.77225659 26 58 C25.34 58 24.68 58 24 58 C24 57.01 24 56.02 24 55 C23.34 55 22.68 55 22 55 C22 53.68 22 52.36 22 51 C21.34 51 20.68 51 20 51 C19.76216797 50.19949219 19.76216797 50.19949219 19.51953125 49.3828125 C17.88173283 44.1527159 15.77265493 39.45526856 13.25 34.59765625 C11.98067753 31.95984549 11.00781943 29.33149816 10.0625 26.5625 C8.32287525 21.55664102 6.00931825 17.09389438 3.3671875 12.5078125 C1.02730496 8.21579938 -0.28138292 4.92420108 0 0 Z " fill="#BA56D7" transform="translate(423,229)"/>
<path d="M0 0 C-1.22896869 3.68690606 -2.20087402 3.9912398 -5.5 5.875 C-6.85351562 6.65617187 -6.85351562 6.65617187 -8.234375 7.453125 C-10.73520569 8.85189471 -13.24034957 10.24213139 -15.75 11.625 C-23.27363764 15.7800403 -30.09640306 20.90195918 -37 26 C-38.53914063 27.11375 -38.53914063 27.11375 -40.109375 28.25 C-47.18173784 33.4938983 -53.42161502 39.15935736 -59.50708008 45.52978516 C-60.97160428 47.05241701 -62.4819904 48.53068527 -64 50 C-64.66 50 -65.32 50 -66 50 C-66.26167969 50.56847656 -66.52335937 51.13695312 -66.79296875 51.72265625 C-68.09352479 54.17645615 -69.63198052 56.22785908 -71.3125 58.4375 C-77.35952695 67.0220059 -81.64710088 77.33113163 -81 88 C-80.2467055 90.85683384 -79.21190912 93.28532356 -78 96 C-78 96.99 -78 97.98 -78 99 C-77.34 99 -76.68 99 -76 99 C-75.71125 99.804375 -75.4225 100.60875 -75.125 101.4375 C-74.26737432 104.1326468 -74.26737432 104.1326468 -72 105 C-72 105.66 -72 106.32 -72 107 C-71.34 107 -70.68 107 -70 107 C-70 107.66 -70 108.32 -70 109 C-68.948125 109.37125 -68.948125 109.37125 -67.875 109.75 C-64.60485452 111.17180238 -61.858878 112.87246288 -59 115 C-59 115.66 -59 116.32 -59 117 C-68.81508378 113.43557484 -75.86590625 106.00294885 -81.09765625 97.140625 C-84.68751592 89.32641884 -84.10860202 79.38630664 -81.5 71.375 C-76.69618035 59.94291351 -68.64639629 50.69465261 -60 42 C-59.5143457 41.51031738 -59.02869141 41.02063477 -58.52832031 40.51611328 C-44.7613863 26.825913 -28.39020674 16.26395993 -12 6 C-10.40865234 5.00226563 -10.40865234 5.00226563 -8.78515625 3.984375 C-2.29658294 0 -2.29658294 0 0 0 Z " fill="#9E50D2" transform="translate(205,325)"/>
<path d="M0 0 C-0.59900842 3.54991306 -1.55211126 6.54811143 -3.0625 9.8125 C-3.42472656 10.60269531 -3.78695312 11.39289063 -4.16015625 12.20703125 C-4.43730469 12.79871094 -4.71445312 13.39039063 -5 14 C-5.33 14 -5.66 14 -6 14 C-6.22036864 10.14354879 -5.60355101 7.50776784 -4 4 C-3.34 4 -2.68 4 -2 4 C-2 3.01 -2 2.02 -2 1 C-2.93247559 1.1429248 -3.86495117 1.28584961 -4.82568359 1.43310547 C-19.6728138 3.48933046 -34.56230808 3.23410456 -49.51324463 3.1373291 C-53.07390931 3.11654081 -56.6346041 3.1076663 -60.1953125 3.09765625 C-67.13027996 3.07647121 -74.0651313 3.04252628 -81 3 C-81.26844727 3.67401855 -81.53689453 4.34803711 -81.81347656 5.04248047 C-82.16893555 5.93338379 -82.52439453 6.82428711 -82.890625 7.7421875 C-83.24157227 8.62245605 -83.59251953 9.50272461 -83.95410156 10.40966797 C-85.25393972 13.62892167 -86.61575745 16.81624212 -88 20 C-88.66 19.67 -89.32 19.34 -90 19 C-89.61722634 17.68363204 -89.21770403 16.37213734 -88.8125 15.0625 C-88.59207031 14.33160156 -88.37164062 13.60070312 -88.14453125 12.84765625 C-87.07418644 10.18457993 -85.83245456 7.82074425 -84.4284668 5.32202148 C-83.9747319 4.51240463 -83.52099701 3.70278778 -83.05351257 2.86863708 C-82.70585342 2.25198685 -82.35819427 1.63533661 -82 1 C-81.07943565 1.00333092 -81.07943565 1.00333092 -80.14027405 1.00672913 C-73.66586905 1.02911097 -67.1914753 1.04404145 -60.71704102 1.05493164 C-58.31111198 1.05991419 -55.90518591 1.06670265 -53.49926758 1.07543945 C-41.13953485 1.11914976 -28.83718627 1.12852713 -16.50585938 0.22265625 C-11.00283111 -0.1268397 -5.51276425 -0.08628674 0 0 Z " fill="#663DE5" transform="translate(277,455)"/>
<path d="M0 0 C0.66 0 1.32 0 2 0 C0.06236724 6.1941816 -2.24786893 12.0822573 -4.95703125 17.9765625 C-5.3370932 18.81320435 -5.71715515 19.64984619 -6.10873413 20.51184082 C-7.33919195 23.21812983 -8.57581287 25.92155274 -9.8125 28.625 C-10.66428489 30.49571864 -11.51559926 32.36665158 -12.36645508 34.23779297 C-14.08262375 38.01093668 -15.80081588 41.78314838 -17.52050781 45.5546875 C-20.78908527 52.72737274 -24.03245607 59.9113878 -27.27279663 67.09686279 C-28.71599397 70.29680971 -30.16084074 73.49601123 -31.60546875 76.6953125 C-32.40366746 78.4635319 -33.20185394 80.23175683 -34 82 C-35.32 81.67 -36.64 81.34 -38 81 C-37.34 81 -36.68 81 -36 81 C-36 80.34 -36 79.68 -36 79 C-35.34 79 -34.68 79 -34 79 C-33.855625 78.2575 -33.71125 77.515 -33.5625 76.75 C-33.09812508 74.47972261 -32.58136431 72.24240521 -32 70 C-31.34 70 -30.68 70 -30 70 C-30 68.68 -30 67.36 -30 66 C-29.34 66 -28.68 66 -28 66 C-27.87496094 65.28070313 -27.74992187 64.56140625 -27.62109375 63.8203125 C-27.00321999 61.01462158 -26.14025662 58.534822 -25.0625 55.875 C-24.72347656 55.02679688 -24.38445312 54.17859375 -24.03515625 53.3046875 C-23 51 -23 51 -21 48 C-20.61500109 46.34450469 -20.27206865 44.6777567 -20 43 C-19.34 43 -18.68 43 -18 43 C-17.855625 42.4225 -17.71125 41.845 -17.5625 41.25 C-17.04166667 39.16666667 -16.52083333 37.08333333 -16 35 C-15.34 35 -14.68 35 -14 35 C-14.10248047 33.97326172 -14.10248047 33.97326172 -14.20703125 32.92578125 C-13.94150525 29.1733478 -12.44476414 26.4309352 -10.6875 23.1875 C-8.08952743 18.21582151 -5.80696137 13.31459225 -4 8 C-3.34 8 -2.68 8 -2 8 C-1.855625 7.236875 -1.71125 6.47375 -1.5625 5.6875 C-1 3 -1 3 0 0 Z " fill="#614EDD" transform="translate(323,347)"/>
<path d="M0 0 C0.95519531 -0.00773438 1.91039062 -0.01546875 2.89453125 -0.0234375 C14.66716082 0.00886052 23.24072026 3.09161472 31.6875 11.5 C36.47034587 17.22594224 43.125 28.60457824 43.125 36.25 C42.465 36.25 41.805 36.25 41.125 36.25 C39.36037317 33.16190305 39.125 32.01687864 39.125 28.25 C38.465 28.25 37.805 28.25 37.125 28.25 C36.67125 27.05375 36.2175 25.8575 35.75 24.625 C35.47414063 23.89925781 35.19828125 23.17351562 34.9140625 22.42578125 C34.24453408 20.57960634 33.67355586 18.69816078 33.125 16.8125 C32.63 15.5440625 32.63 15.5440625 32.125 14.25 C31.135 13.92 30.145 13.59 29.125 13.25 C28.63 12.26 28.63 12.26 28.125 11.25 C27.135 10.92 26.145 10.59 25.125 10.25 C25.125 9.59 25.125 8.93 25.125 8.25 C24.465 8.25 23.805 8.25 23.125 8.25 C23.125 7.59 23.125 6.93 23.125 6.25 C21.805 6.25 20.485 6.25 19.125 6.25 C19.125 5.59 19.125 4.93 19.125 4.25 C15.42430519 3.3956672 11.99788359 3.12140524 8.203125 3.1171875 C6.54216797 3.11525391 6.54216797 3.11525391 4.84765625 3.11328125 C3.70167969 3.11714844 2.55570312 3.12101563 1.375 3.125 C0.21355469 3.12113281 -0.94789063 3.11726562 -2.14453125 3.11328125 C-3.79775391 3.11521484 -3.79775391 3.11521484 -5.484375 3.1171875 C-6.9998291 3.11887939 -6.9998291 3.11887939 -8.54589844 3.12060547 C-10.83542885 2.98816389 -10.83542885 2.98816389 -11.875 4.25 C-13.87458364 4.29080783 -15.87545254 4.29254356 -17.875 4.25 C-16.875 2.25 -16.875 2.25 -14.4921875 1.140625 C-9.61695353 -0.05975658 -5.00114473 -0.04016984 0 0 Z " fill="#8961E6" transform="translate(359.875,147.75)"/>
<path d="M0 0 C0.91652344 0.01160156 1.83304687 0.02320313 2.77734375 0.03515625 C3.69644531 0.04417969 4.61554688 0.05320312 5.5625 0.0625 C6.27277344 0.07410156 6.98304688 0.08570313 7.71484375 0.09765625 C4.71484375 2.09765625 4.71484375 2.09765625 2.71484375 2.09765625 C2.38484375 2.75765625 2.05484375 3.41765625 1.71484375 4.09765625 C0.97363281 4.08605469 0.23242188 4.07445312 -0.53125 4.0625 C-6.72194866 4.00945852 -12.8105146 4.16374392 -18.98828125 4.59375 C-27.99341537 5.1675163 -36.9772117 5.25016914 -45.99829102 5.22802734 C-48.61285092 5.22262485 -51.22724183 5.2280355 -53.84179688 5.234375 C-76.84401838 5.24470221 -76.84401838 5.24470221 -83.28515625 3.09765625 C-82.95515625 2.43765625 -82.62515625 1.77765625 -82.28515625 1.09765625 C-80.01401822 1.23866482 -77.743249 1.3856238 -75.47265625 1.53515625 C-74.20808594 1.61636719 -72.94351563 1.69757813 -71.640625 1.78125 C-68.28515625 2.09765625 -68.28515625 2.09765625 -65.28515625 3.09765625 C-62.68475217 3.19450897 -60.11199664 3.23763578 -57.51171875 3.23046875 C-56.37058121 3.23190384 -56.37058121 3.23190384 -55.20639038 3.23336792 C-53.59755368 3.23404807 -51.98871423 3.23220529 -50.37988281 3.22802734 C-47.92636893 3.22269151 -45.47303933 3.22797026 -43.01953125 3.234375 C-41.45442668 3.2337139 -39.88932223 3.23243208 -38.32421875 3.23046875 C-37.22867172 3.2335051 -37.22867172 3.2335051 -36.11099243 3.23660278 C-32.35936224 3.21948054 -28.94229384 2.89815877 -25.28515625 2.09765625 C-23.53219776 1.9684979 -21.77622223 1.87625727 -20.01953125 1.81640625 C-19.04757812 1.77902344 -18.075625 1.74164063 -17.07421875 1.703125 C-15.03257081 1.63227089 -12.99090372 1.56196661 -10.94921875 1.4921875 C-9.98242188 1.45480469 -9.015625 1.41742188 -8.01953125 1.37890625 C-7.13491211 1.34861328 -6.25029297 1.31832031 -5.33886719 1.28710938 C-2.79694628 1.05261929 -2.62790043 0.11230344 0 0 Z " fill="#A446E8" transform="translate(275.28515625,451.90234375)"/>
<path d="M0 0 C-4.35882487 2.25456459 -7.97996436 3.158202 -12.875 3.5 C-15.75451822 3.70207145 -18.52464536 3.89882287 -21.34912109 4.5 C-24.07678873 5.01448364 -26.6490162 5.19014594 -29.421875 5.28125 C-30.44796875 5.31863281 -31.4740625 5.35601562 -32.53125 5.39453125 C-33.5934375 5.42933594 -34.655625 5.46414063 -35.75 5.5 C-42.23987815 5.71579644 -48.6567051 6.00026144 -55.10498047 6.78173828 C-64.18310625 7.82732504 -73.04294896 6.46451054 -82 5 C-82 4.67 -82 4.34 -82 4 C-81.3596431 3.98969254 -80.71928619 3.97938507 -80.05952454 3.96876526 C-73.39220275 3.86055027 -66.72501201 3.74596448 -60.05786133 3.62768555 C-57.5699335 3.5843848 -55.08197689 3.54270628 -52.59399414 3.50268555 C-49.01700161 3.44486547 -45.44015333 3.38120449 -41.86328125 3.31640625 C-40.19583611 3.29133751 -40.19583611 3.29133751 -38.4947052 3.26576233 C-37.45400375 3.24581711 -36.41330231 3.22587189 -35.34106445 3.20532227 C-34.4283931 3.18977798 -33.51572174 3.1742337 -32.57539368 3.15821838 C-29.96677487 2.99795883 -27.55343768 2.54168296 -25 2 C-21.42783916 1.7053888 -17.85516232 1.49507907 -14.27734375 1.28125 C-9.35608023 0.85892464 -5.01712336 -0.09648314 0 0 Z " fill="#9840E9" transform="translate(288,429)"/>
<path d="M0 0 C0.66 0.33 1.32 0.66 2 1 C-0.24568715 2.96347513 -2.49623121 4.92083936 -4.75 6.875 C-5.38421875 7.43058594 -6.0184375 7.98617188 -6.671875 8.55859375 C-7.290625 9.09355469 -7.909375 9.62851562 -8.546875 10.1796875 C-9.11245117 10.67194824 -9.67802734 11.16420898 -10.26074219 11.67138672 C-12 13 -12 13 -14.15014648 14.05541992 C-16.55762815 15.28473846 -16.89072048 16.5851487 -18 19 C-19.48046875 20.53515625 -19.48046875 20.53515625 -21.1875 22.0625 C-28.62832315 29.31730257 -35.93030648 40.3691699 -36.4375 51.0625 C-35.92405172 55.68353452 -34.67852496 59.68379295 -33 64 C-36.11240608 61.92506261 -36.75566011 61.36200091 -38 58 C-39.85179554 45.78118518 -36.38493927 38.04772809 -30 28 C-29.34 28 -28.68 28 -28 28 C-27.7525 27.43667969 -27.505 26.87335938 -27.25 26.29296875 C-21.44164462 15.63826685 -9.92998376 6.69194558 0 0 Z " fill="#9E49D1" transform="translate(183,350)"/>
<path d="M0 0 C-0.99 2.31 -1.98 4.62 -3 7 C-3.33 7 -3.66 7 -4 7 C-4 5.35 -4 3.7 -4 2 C-4.94359375 2.44730469 -5.8871875 2.89460938 -6.859375 3.35546875 C-12.81643232 6.16457651 -18.7508319 8.94409762 -24.875 11.375 C-31.46823052 14.06410893 -37.66668961 17.43293983 -43.921875 20.81640625 C-55.40846115 27 -55.40846115 27 -58 27 C-58 26.34 -58 25.68 -58 25 C-44.56258512 17.81862708 -31.06330318 11.02013416 -17.09570312 4.93115234 C-13.3816645 3.28094926 -9.73325435 1.4876231 -6.09375 -0.3203125 C-3.64630156 -1.11482001 -2.39036645 -0.85835886 0 0 Z " fill="#A955D3" transform="translate(267,297)"/>
<path d="M0 0 C3.28569374 3.88043356 4.88970133 8.35158141 6.66210938 13.04296875 C7.81797867 15.91586815 8.55430385 17.70922497 11.19140625 19.4296875 C11.78824219 19.61789063 12.38507813 19.80609375 13 20 C12.01 20 11.02 20 10 20 C12.32570577 25.24412782 14.66444996 30.48208153 17.015625 35.71484375 C18.09381634 38.12236612 19.17194006 40.52991878 20.25 42.9375 C20.52811523 43.55471924 20.80623047 44.17193848 21.09277344 44.80786133 C21.90384425 46.60863727 22.70981967 48.41170548 23.515625 50.21484375 C23.99290039 51.27823975 24.47017578 52.34163574 24.96191406 53.43725586 C26 56 26 56 26 58 C25.34 58 24.68 58 24 58 C24 57.01 24 56.02 24 55 C23.34 55 22.68 55 22 55 C22 53.68 22 52.36 22 51 C21.34 51 20.68 51 20 51 C19.76216797 50.19949219 19.76216797 50.19949219 19.51953125 49.3828125 C17.88173283 44.1527159 15.77265493 39.45526856 13.25 34.59765625 C11.98067753 31.95984549 11.00781943 29.33149816 10.0625 26.5625 C8.32287525 21.55664102 6.00931825 17.09389438 3.3671875 12.5078125 C1.02730496 8.21579938 -0.28138292 4.92420108 0 0 Z " fill="#895EE4" transform="translate(423,229)"/>
<path d="M0 0 C0.66 0 1.32 0 2 0 C2.21914063 0.57105469 2.43828125 1.14210938 2.6640625 1.73046875 C4.63808375 6.77786456 6.76530726 11.7155382 9.0625 16.625 C10.96658213 20.69973576 12.70939516 24.74634296 14.2265625 28.9765625 C16.46210222 34.82509571 19.2055525 40.49482672 22.0625 46.0625 C23.5824806 49.08377291 24.98612492 52.13846943 26.3125 55.25 C26.65925781 56.05953125 27.00601562 56.8690625 27.36328125 57.703125 C28.07914993 60.28552245 27.73290574 61.47941417 27 64 C18.23308997 44.68356535 18.23308997 44.68356535 15.375 37.6875 C13.56684009 33.26962475 11.59896509 28.94129518 9.5625 24.625 C7.16242032 19.52836407 4.81170179 14.41523533 2.5625 9.25 C2.06878906 8.12078125 1.57507813 6.9915625 1.06640625 5.828125 C0 3 0 3 0 0 Z " fill="#7756DF" transform="translate(427,419)"/>
<path d="M0 0 C0.66 0.33 1.32 0.66 2 1 C-1.51837484 3.21378174 -5.02206074 4.94917571 -8.8671875 6.5234375 C-10.55714844 7.21614746 -10.55714844 7.21614746 -12.28125 7.92285156 C-13.4671875 8.40206055 -14.653125 8.88126953 -15.875 9.375 C-17.08414062 9.86452148 -18.29328125 10.35404297 -19.5390625 10.85839844 C-43.52714461 20.4909518 -43.52714461 20.4909518 -48 19 C-44.32847288 16.91616029 -40.9133024 15.65313814 -36.8125 14.625 C-31.87454167 13.34552902 -27.49580123 11.51483669 -22.8984375 9.328125 C-18.66573724 7.38861275 -14.32162294 5.77765499 -9.96484375 4.140625 C-7.53622077 3.2062931 -5.17731921 2.20662209 -2.8125 1.125 C-1.4203125 0.568125 -1.4203125 0.568125 0 0 Z " fill="#DE57D5" transform="translate(456,404)"/>
<path d="M0 0 C13.86 0 27.72 0 42 0 C42 0.66 42 1.32 42 2 C37.94786324 2.1952744 33.89533622 2.37344535 29.84179688 2.53710938 C28.46855466 2.59480863 27.09548635 2.65684291 25.72265625 2.72363281 C16.86251343 3.15109584 8.68291453 2.88928103 0 1 C0 0.67 0 0.34 0 0 Z " fill="#B65AC7" transform="translate(481,242)"/>
<path d="M0 0 C3.36338044 3.36338044 4 6.28835716 4 11 C0.71090537 12.58871532 -2.58173773 14.16994425 -5.875 15.75 C-6.7928125 16.1934375 -7.710625 16.636875 -8.65625 17.09375 C-25.16636029 25 -25.16636029 25 -30 25 C-30 24.34 -30 23.68 -30 23 C-28.35 23 -26.7 23 -25 23 C-25 22.34 -25 21.68 -25 21 C-24.05640625 20.63648438 -24.05640625 20.63648438 -23.09375 20.265625 C-18.94896968 18.64266885 -14.88380741 17.00233559 -10.9375 14.9375 C-6.7829253 12.78799612 -2.46495812 11.36429276 2 10 C1.67 9.278125 1.34 8.55625 1 7.8125 C-0.00603529 4.98302573 -0.16977402 2.97104534 0 0 Z " fill="#8942E2" transform="translate(481,359)"/>
<path d="M0 0 C-5.2568108 2.27981052 -10.545364 4.45869632 -15.875 6.5625 C-16.62652344 6.86607422 -17.37804687 7.16964844 -18.15234375 7.48242188 C-23.35774362 9.53154584 -28.50752047 10.94463023 -34 12 C-38 4.375 -38 4.375 -38 1 C-37.34 1 -36.68 1 -36 1 C-34.74335022 3.90600261 -34 5.79604584 -34 9 C-27.8623507 8.65258589 -23.40894907 6.98757943 -17.8828125 4.34765625 C-14.97684014 2.98917324 -12.0582481 1.77137294 -9.0625 0.625 C-8.18722656 0.28726562 -7.31195313 -0.05046875 -6.41015625 -0.3984375 C-3.8230836 -1.04415742 -2.48108311 -0.88651229 0 0 Z " fill="#873CE4" transform="translate(451,385)"/>
<path d="M0 0 C0.75410156 -0.01224609 1.50820313 -0.02449219 2.28515625 -0.03710938 C6.14173682 -0.04738446 7.96703384 -0.00114411 11.25 2.1875 C2.83481953 3.70766163 -5.1988728 4.46483386 -13.75 4.1875 C-13.75 3.5275 -13.75 2.8675 -13.75 2.1875 C-14.41 1.8575 -15.07 1.5275 -15.75 1.1875 C-10.46319462 0.3133589 -5.35496541 0.00467274 0 0 Z " fill="#B34BCF" transform="translate(481.75,242.8125)"/>
<path d="M0 0 C-5.28097219 3.06610435 -11.49836621 3.61440805 -17.42431641 4.71435547 C-19.59894758 5.12013865 -21.77006997 5.54183052 -23.94140625 5.96484375 C-31.36004822 7.37600195 -38.41689042 8.34265525 -46 8 C-42.814048 6.3104864 -40.42541314 5.68832263 -36.8125 5.4375 C-33.59996202 5.45010753 -33.59996202 5.45010753 -31 4 C-29.39916539 3.83781413 -27.79363272 3.72150583 -26.1875 3.625 C-21.89546507 3.28498165 -17.96696088 2.56332718 -13.8125 1.4375 C-9.00565197 0.14648215 -4.95830058 -0.2860558 0 0 Z " fill="#C151CC" transform="translate(334,444)"/>
<path d="M0 0 C-4.35882487 2.25456459 -7.97996436 3.158202 -12.875 3.5 C-15.75628426 3.70219539 -18.5295945 3.9006364 -21.35668945 4.49780273 C-24.03683537 5.00699828 -26.57656593 5.20488866 -29.30078125 5.31640625 C-30.27724609 5.35830078 -31.25371094 5.40019531 -32.25976562 5.44335938 C-33.26716797 5.48267578 -34.27457031 5.52199219 -35.3125 5.5625 C-36.33923828 5.60568359 -37.36597656 5.64886719 -38.42382812 5.69335938 C-40.94909569 5.79906825 -43.47445562 5.90116468 -46 6 C-45.67 5.34 -45.34 4.68 -45 4 C-42.55589173 3.71087988 -40.20283897 3.53219529 -37.75 3.4375 C-33.40859262 3.24092375 -29.26216685 2.87411689 -25 2 C-21.42783916 1.7053888 -17.85516232 1.49507907 -14.27734375 1.28125 C-9.35608023 0.85892464 -5.01712336 -0.09648314 0 0 Z " fill="#A845E7" transform="translate(288,429)"/>
<path d="M0 0 C0.66 0 1.32 0 2 0 C0.38378985 6.68033529 -2.13888553 12.55461332 -5.29541016 18.65332031 C-8.20682877 24.30298766 -10.65406911 30.09733518 -13 36 C-14.22419163 32.06204091 -13.48320272 29.83887763 -12 26 C-11.34 26 -10.68 26 -10 26 C-10 24.35 -10 22.7 -10 21 C-9.34 21 -8.68 21 -8 21 C-8 19.68 -8 18.36 -8 17 C-7.34 17 -6.68 17 -6 17 C-5.83177734 15.95779297 -5.83177734 15.95779297 -5.66015625 14.89453125 C-4.91553885 11.62967036 -3.75599912 8.76399795 -2.4375 5.6875 C-1.98246094 4.61886719 -1.52742188 3.55023438 -1.05859375 2.44921875 C-0.70925781 1.64097656 -0.35992187 0.83273437 0 0 Z " fill="#654EDF" transform="translate(339,311)"/>
<path d="M0 0 C0.33 0 0.66 0 1 0 C1.19622241 4.21878192 0.80230168 7.17010894 -1 11 C-1.66 11 -2.32 11 -3 11 C-3.11730469 11.68707031 -3.23460937 12.37414062 -3.35546875 13.08203125 C-4.09015173 16.40814148 -5.13527022 19.4911207 -6.3125 22.6875 C-6.72113281 23.82574219 -7.12976563 24.96398437 -7.55078125 26.13671875 C-9.08187603 29.16176585 -9.84382508 29.95691447 -13 31 C-11.67927719 26.86532901 -10.15714544 22.91263041 -8.3984375 18.9453125 C-7.90859375 17.83671875 -7.41875 16.728125 -6.9140625 15.5859375 C-6.40617188 14.44382812 -5.89828125 13.30171875 -5.375 12.125 C-4.859375 10.9596875 -4.34375 9.794375 -3.8125 8.59375 C-2.54408973 5.72808235 -1.27318307 2.86354955 0 0 Z " fill="#5E51DF" transform="translate(238,359)"/>
<path d="M0 0 C0.66 0.33 1.32 0.66 2 1 C-0.24568715 2.96347513 -2.49623121 4.92083936 -4.75 6.875 C-5.38421875 7.43058594 -6.0184375 7.98617188 -6.671875 8.55859375 C-7.290625 9.09355469 -7.909375 9.62851562 -8.546875 10.1796875 C-9.11245117 10.67194824 -9.67802734 11.16420898 -10.26074219 11.67138672 C-12 13 -12 13 -14.16113281 14.06298828 C-16.14933554 14.84253043 -16.14933554 14.84253043 -16.875 16.8125 C-18.55805758 20.08511196 -21.11451985 21.74179814 -24 24 C-23.19707769 17.24600648 -15.3582099 11.74850608 -10.30566406 7.61328125 C-6.93802234 4.98092406 -3.49064932 2.46721287 0 0 Z " fill="#A957D6" transform="translate(183,350)"/>
<path d="M0 0 C0.98871094 0.00064453 1.97742188 0.00128906 2.99609375 0.00195312 C10.95388466 0.05041058 10.95388466 0.05041058 14.875 1.1875 C14.545 1.8475 14.215 2.5075 13.875 3.1875 C13.1229126 3.18226318 12.3708252 3.17702637 11.59594727 3.17163086 C8.20980658 3.15092773 4.82367916 3.13786123 1.4375 3.125 C0.25349609 3.11662109 -0.93050781 3.10824219 -2.15039062 3.09960938 C-3.27509766 3.09638672 -4.39980469 3.09316406 -5.55859375 3.08984375 C-6.60072021 3.08460693 -7.64284668 3.07937012 -8.71655273 3.07397461 C-11.07628747 2.91444444 -11.07628747 2.91444444 -12.125 4.1875 C-14.12458364 4.22830783 -16.12545254 4.23004356 -18.125 4.1875 C-17.125 2.1875 -17.125 2.1875 -14.7578125 1.07421875 C-9.79859548 -0.1362568 -5.08388438 -0.06346505 0 0 Z " fill="#7B54E0" transform="translate(360.125,147.8125)"/>
<path d="M0 0 C-1.22896869 3.68690606 -2.20087402 3.9912398 -5.5 5.875 C-6.85544922 6.65617187 -6.85544922 6.65617187 -8.23828125 7.453125 C-9.14964844 7.96359375 -10.06101563 8.4740625 -11 9 C-11.79792969 9.44859375 -12.59585938 9.8971875 -13.41796875 10.359375 C-14.90525712 11.18877506 -16.39604573 12.01193632 -17.890625 12.828125 C-19.93672653 13.96484807 -21.93357209 15.1660187 -23.9375 16.375 C-24.948125 16.91125 -25.95875 17.4475 -27 18 C-27.66 17.67 -28.32 17.34 -29 17 C-2.94180459 0 -2.94180459 0 0 0 Z " fill="#A457D4" transform="translate(205,325)"/>
<path d="M0 0 C2.68752172 4.03128259 4.51628362 8.33892459 6.5 12.75 C6.90347656 13.63171875 7.30695313 14.5134375 7.72265625 15.421875 C9.88995016 20.22854664 11.71414263 24.88452396 13 30 C12.34 30 11.68 30 11 30 C10.69707031 29.26136719 10.39414062 28.52273438 10.08203125 27.76171875 C7.91343604 22.51038203 5.69372905 17.31719363 3.25 12.1875 C1.33011246 8.03476519 0.30371397 4.55570951 0 0 Z " fill="#865FE4" transform="translate(450,289)"/>
<path d="M0 0 C0.66 0.99 1.32 1.98 2 3 C1.67386719 3.6290625 1.34773438 4.258125 1.01171875 4.90625 C-1.06925754 8.98226256 -3.08266529 12.99891147 -4.625 17.3125 C-5.82349563 20.52664738 -7.00156812 23.21957303 -9 26 C-9.66 26 -10.32 26 -11 26 C-9.28137532 20.31531835 -6.8358325 15.01576119 -4.375 9.625 C-3.95476562 8.69816406 -3.53453125 7.77132813 -3.1015625 6.81640625 C-2.07035118 4.54305401 -1.03643137 2.27097594 0 0 Z " fill="#6556E3" transform="translate(279,269)"/>
<path d="M0 0 C1.11132812 3.71289062 1.11132812 3.71289062 0.109375 6.296875 C-0.33921875 7.10640625 -0.7878125 7.9159375 -1.25 8.75 C-2.95008383 11.93824585 -4.47311029 15.03343351 -5.6875 18.4375 C-7 22 -7 22 -9 25 C-9.66 25 -10.32 25 -11 25 C-8.4621689 16.11759114 -4.22230349 8.17381793 0 0 Z " fill="#5B4DE1" transform="translate(262,308)"/>
<path d="M0 0 C0.33 0 0.66 0 1 0 C1.45269603 3.8931859 1.37179163 5.50587722 -1.02416992 8.69018555 C-4.74949425 11.58175117 -7.42655122 11.56835225 -11.92578125 11.26953125 C-12.67337204 11.24026047 -13.42096283 11.21098969 -14.19120789 11.18083191 C-16.56678529 11.08226687 -18.93876818 10.94794249 -21.3125 10.8125 C-22.92762849 10.73916601 -24.54286525 10.66817655 -26.15820312 10.59960938 C-30.1072387 10.42686834 -34.0534425 10.22205127 -38 10 C-38 9.67 -38 9.34 -38 9 C-36.47076904 8.97812622 -36.47076904 8.97812622 -34.91064453 8.95581055 C-31.13456834 8.89791534 -27.35909404 8.82068335 -23.58349609 8.73754883 C-21.94817866 8.70425786 -20.31274518 8.67623894 -18.67724609 8.65356445 C-16.32859757 8.62009372 -13.98101663 8.56778564 -11.6328125 8.51171875 C-10.53273361 8.50213387 -10.53273361 8.50213387 -9.41043091 8.49235535 C-7.12675244 8.46005457 -7.12675244 8.46005457 -4 8 C-3.34 7.01 -2.68 6.02 -2 5 C-1.34 5 -0.68 5 0 5 C0 3.35 0 1.7 0 0 Z " fill="#7B40EB" transform="translate(541,495)"/>
<path d="M0 0 C2.27687802 2.8369941 3.83468917 5.57255422 5.26171875 8.9140625 C5.85629883 10.30238281 5.85629883 10.30238281 6.46289062 11.71875 C6.86701172 12.6778125 7.27113281 13.636875 7.6875 14.625 C8.10322266 15.59179688 8.51894531 16.55859375 8.94726562 17.5546875 C12 24.73287408 12 24.73287408 12 27 C11.34 27 10.68 27 10 27 C9.32645501 25.56570999 8.66140299 24.12742943 8 22.6875 C7.62875 21.88699219 7.2575 21.08648437 6.875 20.26171875 C6 18 6 18 6 15 C5.34 15 4.68 15 4 15 C4 13.35 4 11.7 4 10 C3.34 10 2.68 10 2 10 C0.39644899 6.49223216 -0.22036864 3.85645121 0 0 Z " fill="#835BE3" transform="translate(467,328)"/>
<path d="M0 0 C-1 2 -1 2 -2.73461914 2.68676758 C-3.47317139 2.89970459 -4.21172363 3.1126416 -4.97265625 3.33203125 C-10.09103743 4.9428666 -14.69078233 7.20940509 -19.4375 9.6875 C-21.01768776 10.50746871 -22.59963607 11.32405639 -24.18359375 12.13671875 C-24.86993896 12.49467529 -25.55628418 12.85263184 -26.26342773 13.22143555 C-28 14 -28 14 -30 14 C-29.67 13.01 -29.34 12.02 -29 11 C-27.02060953 10.27442588 -25.01431751 9.62206864 -23 9 C-20.20511499 7.73422082 -17.4807756 6.33539703 -14.75 4.9375 C-14.03070313 4.57333984 -13.31140625 4.20917969 -12.5703125 3.83398438 C-10.71188352 2.89258917 -8.85577685 1.94661263 -7 1 C-4.53721199 -0.231394 -2.7204945 -0.07159196 0 0 Z " fill="#A952D4" transform="translate(263,306)"/>
<path d="M0 0 C0 0.33 0 0.66 0 1 C2.97 1.495 2.97 1.495 6 2 C6 2.33 6 2.66 6 3 C4.4176994 3.33820166 2.83410625 3.67035939 1.25 4 C-0.07257813 4.2784375 -0.07257813 4.2784375 -1.421875 4.5625 C-4 5 -4 5 -8 5 C-8.33 5.66 -8.66 6.32 -9 7 C-9.33 5.02 -9.66 3.04 -10 1 C-6.52674819 -0.1577506 -3.63932552 -0.06866652 0 0 Z " fill="#B44CD4" transform="translate(443,248)"/>
<path d="M0 0 C0.66 0.33 1.32 0.66 2 1 C1.319375 1.680625 0.63875 2.36125 -0.0625 3.0625 C-0.51367188 3.51496094 -0.96484375 3.96742188 -1.4296875 4.43359375 C-2.5548028 5.55591026 -3.68569251 6.67244952 -4.8203125 7.78515625 C-5.74457031 8.69587891 -5.74457031 8.69587891 -6.6875 9.625 C-7.26886719 10.19476563 -7.85023438 10.76453125 -8.44921875 11.3515625 C-10.20251898 13.12382974 -10.20251898 13.12382974 -12 16 C-12.66 16 -13.32 16 -14 16 C-12.22009001 9.67143113 -7.37651951 4.74278098 -2.1875 0.9375 C-1.1046875 0.4734375 -1.1046875 0.4734375 0 0 Z " fill="#8060EA" transform="translate(340,152)"/>
<path d="M0 0 C0.66 0.99 1.32 1.98 2 3 C1.390625 4.98828125 1.390625 4.98828125 0.25 7.3125 C-2.53942249 13.67351412 -3.24906572 20.14278431 -4 27 C-4.33 27 -4.66 27 -5 27 C-5.53144072 16.88786402 -4.53803509 9.07607018 0 0 Z " fill="#A55FDA" transform="translate(127,389)"/>
<path d="M0 0 C-1.71446958 0.73957511 -3.42957894 1.47771477 -5.1484375 2.20703125 C-6.54530666 2.80526846 -7.9316905 3.42807401 -9.3125 4.0625 C-14.84428166 5.99219128 -20.27057818 7.60079002 -26 6 C-22.42211911 4.79561349 -18.83698135 3.61447826 -15.25 2.4375 C-14.23421875 2.09525391 -13.2184375 1.75300781 -12.171875 1.40039062 C-11.1921875 1.08134766 -10.2125 0.76230469 -9.203125 0.43359375 C-8.30239258 0.13509521 -7.40166016 -0.16340332 -6.47363281 -0.47094727 C-3.88194396 -1.02524945 -2.47168427 -0.87013375 0 0 Z " fill="#D75FD9" transform="translate(430,395)"/>
<path d="M0 0 C2.55373095 3.83059643 4.30892364 7.86930775 6.1875 12.0625 C6.56841797 12.89072266 6.94933594 13.71894531 7.34179688 14.57226562 C7.69693359 15.36439453 8.05207031 16.15652344 8.41796875 16.97265625 C8.90946411 18.05945679 8.90946411 18.05945679 9.41088867 19.16821289 C10 21 10 21 9 23 C8.34 22.34 7.68 21.68 7 21 C7 19.68 7 18.36 7 17 C6.34 17 5.68 17 5 17 C3.50178941 13.62902617 3 11.79557881 3 8 C2.34 8 1.68 8 1 8 C0.67 5.36 0.34 2.72 0 0 Z " fill="#8E5EE5" transform="translate(526,461)"/>
<path d="M0 0 C-2.91506455 1.94337637 -3.82971692 2.27674667 -7.125 2.5625 C-10.77463966 2.56686899 -10.77463966 2.56686899 -12 4 C-13.68608966 4.07205511 -15.37500659 4.08386068 -17.0625 4.0625 C-17.98160156 4.05347656 -18.90070313 4.04445313 -19.84765625 4.03515625 C-20.55792969 4.02355469 -21.26820313 4.01195312 -22 4 C-20 1 -20 1 -17.4609375 0.48828125 C-16.44257813 0.43027344 -15.42421875 0.37226563 -14.375 0.3125 C-12.77011719 0.21582031 -12.77011719 0.21582031 -11.1328125 0.1171875 C-7.41295136 -0.02195943 -3.72169062 -0.07157097 0 0 Z " fill="#C468D8" transform="translate(310,426)"/>
<path d="M0 0 C-1 2 -1 2 -3.67578125 2.9296875 C-4.77277344 3.28289062 -5.86976563 3.63609375 -7 4 C-10.1344953 5.52190589 -13.20903801 7.13632439 -16.29296875 8.7578125 C-19 10 -19 10 -22 10 C-22 9.34 -22 8.68 -22 8 C-20.7625 7.566875 -19.525 7.13375 -18.25 6.6875 C-15.0454834 5.49355005 -12.68666841 4.13080598 -10 2 C-6.50999506 0.29974118 -3.8739408 -0.22136805 0 0 Z " fill="#E357D8" transform="translate(495,388)"/>
<path d="M0 0 C2.45966131 3.68949197 4.2430361 7.5558454 6.125 11.5625 C6.49753906 12.34302734 6.87007813 13.12355469 7.25390625 13.92773438 C7.60582031 14.67474609 7.95773437 15.42175781 8.3203125 16.19140625 C8.64273926 16.87404541 8.96516602 17.55668457 9.29736328 18.26000977 C10 20 10 20 10 22 C9.34 22 8.68 22 8 22 C0.14806378 7.40318907 0.14806378 7.40318907 0 0 Z " fill="#8862E5" transform="translate(408,195)"/>
<path d="M0 0 C0.66 0.33 1.32 0.66 2 1 C1.67386719 1.71285156 1.34773437 2.42570312 1.01171875 3.16015625 C-1.3863069 8.41600599 -3.75286505 13.67783827 -6 19 C-6.66 18.67 -7.32 18.34 -8 18 C-6.10463724 11.48180123 -3.4821006 5.82185199 0 0 Z " fill="#5A4CDE" transform="translate(195,456)"/>
<path d="M0 0 C6.15234375 -0.09765625 6.15234375 -0.09765625 8 0 C8.33 0.33 8.66 0.66 9 1 C11.54756104 1.28306234 14.09510022 1.44815786 16.65234375 1.62109375 C19 2 19 2 21 4 C14.20694776 4.22272302 7.57139033 3.90100934 1 2 C0.67 1.34 0.34 0.68 0 0 Z " fill="#A954D3" transform="translate(170,450)"/>
<path d="M0 0 C0 0.66 0 1.32 0 2 C-3.38152192 3.89796206 -6.73436548 4.80223042 -10.5 5.6875 C-12.18609375 6.09548828 -12.18609375 6.09548828 -13.90625 6.51171875 C-16.85846334 6.97766151 -18.22383931 6.81521584 -21 6 C-17.87647773 4.99534271 -14.75095147 3.99707073 -11.625 3 C-10.73554688 2.71382813 -9.84609375 2.42765625 -8.9296875 2.1328125 C-7.65351563 1.72675781 -7.65351563 1.72675781 -6.3515625 1.3125 C-5.56604004 1.06113281 -4.78051758 0.80976563 -3.97119141 0.55078125 C-2 0 -2 0 0 0 Z " fill="#D766D0" transform="translate(397,404)"/>
<path d="M0 0 C-0.99 2.31 -1.98 4.62 -3 7 C-3.33 7 -3.66 7 -4 7 C-4 5.35 -4 3.7 -4 2 C-5.0725 2.515625 -6.145 3.03125 -7.25 3.5625 C-10.25254899 5.00603317 -11.83246499 5.05818094 -15 4 C-13.25705322 3.13153169 -11.50531337 2.28069373 -9.75 1.4375 C-8.77546875 0.96183594 -7.8009375 0.48617188 -6.796875 -0.00390625 C-3.90143703 -1.03510273 -2.80033839 -1.11346788 0 0 Z " fill="#B464D6" transform="translate(267,297)"/>
<path d="M0 0 C0.66 0.99 1.32 1.98 2 3 C1.66226562 3.66386719 1.32453125 4.32773438 0.9765625 5.01171875 C0.53054688 5.89472656 0.08453125 6.77773437 -0.375 7.6875 C-0.81585938 8.55761719 -1.25671875 9.42773438 -1.7109375 10.32421875 C-3.04018576 12.96646039 -3.04018576 12.96646039 -3.9765625 15.70703125 C-5 18 -5 18 -8 20 C-6.54884678 15.42111848 -4.79418096 11.02350565 -2.875 6.625 C-2.59785156 5.98433594 -2.32070313 5.34367188 -2.03515625 4.68359375 C-1.35899615 3.12143075 -0.67981293 1.56057685 0 0 Z " fill="#7D62E4" transform="translate(325,168)"/>
<path d="M0 0 C0.66 0 1.32 0 2 0 C3.25664978 2.90600261 4 4.79604584 4 8 C5.258125 7.835 6.51625 7.67 7.8125 7.5 C10.26456585 7.17841759 12.51650694 7 15 7 C12.6870518 9.3129482 11.52095125 9.49580975 8.375 10.125 C7.55773437 10.29257812 6.74046875 10.46015625 5.8984375 10.6328125 C4.95871094 10.81457031 4.95871094 10.81457031 4 11 C3.32591692 9.73308493 2.66099503 8.46129251 2 7.1875 C1.62875 6.47980469 1.2575 5.77210938 0.875 5.04296875 C0 3 0 3 0 0 Z " fill="#7649E0" transform="translate(413,386)"/>
<path d="M0 0 C0.66 0 1.32 0 2 0 C1.37183502 3.94949704 0.1354471 7.19892028 -1.5625 10.8125 C-2.01753906 11.78832031 -2.47257812 12.76414062 -2.94140625 13.76953125 C-3.29074219 14.50558594 -3.64007813 15.24164063 -4 16 C-5.32 15.67 -6.64 15.34 -8 15 C-7.34 15 -6.68 15 -6 15 C-6 14.34 -6 13.68 -6 13 C-5.34 13 -4.68 13 -4 13 C-3.855625 12.2575 -3.71125 11.515 -3.5625 10.75 C-3.09812508 8.47972261 -2.58136431 6.24240521 -2 4 C-1.34 4 -0.68 4 0 4 C0 2.68 0 1.36 0 0 Z " fill="#5D43DD" transform="translate(293,413)"/>
<path d="M0 0 C0.33 0 0.66 0 1 0 C1.40504471 4.54831461 0.10663029 7.31868008 -2 11.3125 C-2.556875 12.38113281 -3.11375 13.44976562 -3.6875 14.55078125 C-4.3371875 15.76314453 -4.3371875 15.76314453 -5 17 C-5.66 17 -6.32 17 -7 17 C-5.24009216 11.08030998 -2.60305395 5.58365008 0 0 Z " fill="#5F56DF" transform="translate(222,395)"/>
<path d="M0 0 C2.60444348 -0.05394705 5.20776998 -0.09364469 7.8125 -0.125 C8.55048828 -0.14175781 9.28847656 -0.15851563 10.04882812 -0.17578125 C13.91246426 -0.21074628 15.70903668 -0.19397555 19 2 C18.67 2.33 18.34 2.66 18 3 C16.25 2.9140625 16.25 2.9140625 14 2.625 C13.19691406 2.52574219 12.39382813 2.42648438 11.56640625 2.32421875 C10.29603516 2.16373047 10.29603516 2.16373047 9 2 C7.3128117 1.80971561 5.62532365 1.62206392 3.9375 1.4375 C2.638125 1.293125 1.33875 1.14875 0 1 C0 0.67 0 0.34 0 0 Z " fill="#BE65D4" transform="translate(481,242)"/>
<path d="M0 0 C1.11987701 3.73292336 0.76115702 5.47768597 -1 9 C-1.66 9.66 -2.32 10.32 -3 11 C-3.71408334 12.98356483 -4.38617742 14.98315437 -5 17 C-5.66 17 -6.32 17 -7 17 C-5.53012914 10.85326729 -2.94033413 5.57765673 0 0 Z " fill="#7763E6" transform="translate(307,208)"/>
<path d="M0 0 C0.33 0.99 0.66 1.98 1 3 C-3.58154261 5.39542583 -8.0276578 7.50829734 -13 9 C-12 6 -12 6 -9.27734375 4.39453125 C-8.17519531 3.87246094 -7.07304687 3.35039062 -5.9375 2.8125 C-4.83277344 2.28269531 -3.72804688 1.75289063 -2.58984375 1.20703125 C-1.73519531 0.80871094 -0.88054687 0.41039062 0 0 Z " fill="#DD52D9" transform="translate(485,369)"/>
<path d="M0 0 C0.33 0 0.66 0 1 0 C1.37210831 4.34126357 0.34221021 6.39659968 -2 10 C-2.69822617 11.65369357 -3.37498605 13.31727014 -4 15 C-4.66 15 -5.32 15 -6 15 C-4.36041242 9.76727367 -2.61047965 4.84803364 0 0 Z " fill="#5F53DF" transform="translate(248,338)"/>
<path d="M0 0 C0.66 0.99 1.32 1.98 2 3 C0.35 6.3 -1.3 9.6 -3 13 C-3.66 13 -4.32 13 -5 13 C-3.78184562 8.31479085 -2.30440013 4.29456388 0 0 Z " fill="#7161E4" transform="translate(279,269)"/>
<path d="M0 0 C-8.46774194 5.32258065 -8.46774194 5.32258065 -12.15234375 4.546875 C-12.76207031 4.36640625 -13.37179687 4.1859375 -14 4 C-12.730447 3.35165346 -11.45930294 2.70642185 -10.1875 2.0625 C-9.47980469 1.70285156 -8.77210938 1.34320313 -8.04296875 0.97265625 C-3.52913386 -1.17637795 -3.52913386 -1.17637795 0 0 Z " fill="#DC52DE" transform="translate(460,383)"/>
<path d="M0 0 C0.66 0.33 1.32 0.66 2 1 C0.23977508 2.53309913 -1.53353463 4.05118701 -3.3125 5.5625 C-4.79169922 6.83287109 -4.79169922 6.83287109 -6.30078125 8.12890625 C-7.19152344 8.74636719 -8.08226562 9.36382812 -9 10 C-9.99 9.67 -10.98 9.34 -12 9 C-8.04 6.03 -4.08 3.06 0 0 Z " fill="#A24FD3" transform="translate(183,350)"/>
<path d="M0 0 C3.3 0 6.6 0 10 0 C7 2 7 2 5 2 C4.67 2.66 4.34 3.32 4 4 C2.35 3.67 0.7 3.34 -1 3 C-0.67 2.01 -0.34 1.02 0 0 Z " fill="#AC49D7" transform="translate(273,452)"/>
<path d="M0 0 C-1.78881736 1.00508801 -3.58114696 2.00392736 -5.375 3 C-6.37273437 3.556875 -7.37046875 4.11375 -8.3984375 4.6875 C-11 6 -11 6 -13 6 C-13 5.34 -13 4.68 -13 4 C-11.40233897 3.13372601 -9.79660056 2.28233535 -8.1875 1.4375 C-7.29417969 0.96183594 -6.40085938 0.48617188 -5.48046875 -0.00390625 C-3 -1 -3 -1 0 0 Z " fill="#A250D0" transform="translate(222,318)"/>
<path d="M0 0 C0.66 0 1.32 0 2 0 C1.54554036 1.41791408 1.08625056 2.83428046 0.625 4.25 C0.36976563 5.03890625 0.11453125 5.8278125 -0.1484375 6.640625 C-0.95173667 8.86627958 -1.89711662 10.90931672 -3 13 C-3.93045933 10.44855176 -4.08564091 9.25993522 -3.22265625 6.640625 C-2.83980469 5.85171875 -2.45695312 5.0628125 -2.0625 4.25 C-1.68222656 3.45078125 -1.30195313 2.6515625 -0.91015625 1.828125 C-0.60980469 1.22484375 -0.30945313 0.6215625 0 0 Z " fill="#693DE7" transform="translate(267,295)"/>
<path d="M0 0 C0.66 0.99 1.32 1.98 2 3 C0.35 6.3 -1.3 9.6 -3 13 C-3.66 13 -4.32 13 -5 13 C-3.58192622 8.52761347 -1.88695626 4.28853694 0 0 Z " fill="#6858E1" transform="translate(285,256)"/>
<path d="M0 0 C0.33 0 0.66 0 1 0 C1.3125 2.6875 1.3125 2.6875 1 6 C-1.5 8.875 -1.5 8.875 -4 11 C-5.32 10.34 -6.64 9.68 -8 9 C-7.195625 8.71125 -6.39125 8.4225 -5.5625 8.125 C-2.8673532 7.26737432 -2.8673532 7.26737432 -2 5 C-1.34 5 -0.68 5 0 5 C0 3.35 0 1.7 0 0 Z " fill="#915BE2" transform="translate(541,495)"/>
<path d="M0 0 C3.42931954 3.7559214 4.56429083 8.23466745 6 13 C5.34 13 4.68 13 4 13 C-0.59225513 4.738041 -0.59225513 4.738041 0 0 Z " fill="#9066E7" transform="translate(515,436)"/>
<path d="M0 0 C0.66 0 1.32 0 2 0 C1.57476184 1.60746056 1.13429874 3.21089836 0.6875 4.8125 C0.44386719 5.70582031 0.20023437 6.59914063 -0.05078125 7.51953125 C-1.0200819 10.05247738 -1.95009604 11.2716496 -4 13 C-3.40895235 8.15340923 -2.02055843 4.39251833 0 0 Z " fill="#6E58E1" transform="translate(339,311)"/>
<path d="M0 0 C0.33 0.99 0.66 1.98 1 3 C-0.07421875 4.7890625 -0.07421875 4.7890625 -1.6875 6.625 C-2.20699219 7.23601562 -2.72648438 7.84703125 -3.26171875 8.4765625 C-5.181038 10.15866252 -6.50835704 10.59829721 -9 11 C-8.60167969 10.54109375 -8.20335937 10.0821875 -7.79296875 9.609375 C-5.08857938 6.47728415 -2.42008229 3.36122541 0 0 Z " fill="#EE75CB" transform="translate(575,308)"/>
<path d="M0 0 C0.33 0 0.66 0 1 0 C1.3227506 4.62609198 0.84450614 7.28026121 -2 11 C-2.66 11 -3.32 11 -4 11 C-2.7874262 7.27566618 -1.49140021 3.62197194 0 0 Z " fill="#645BE0" transform="translate(214,412)"/>
<path d="M0 0 C0.33 0 0.66 0 1 0 C1.19622241 4.21878192 0.80230168 7.17010894 -1 11 C-1.99 10.67 -2.98 10.34 -4 10 C-2.68 6.7 -1.36 3.4 0 0 Z " fill="#695DE4" transform="translate(238,359)"/>
<path d="M0 0 C0.95465783 2.16967689 1.14401212 3.56328793 0.3984375 5.82421875 C-0.35870385 7.5684743 -1.17609198 9.28627131 -2 11 C-2.66 11 -3.32 11 -4 11 C-3.52269162 9.5410574 -3.04308958 8.08286504 -2.5625 6.625 C-2.29566406 5.81289063 -2.02882812 5.00078125 -1.75390625 4.1640625 C-1 2 -1 2 0 0 Z " fill="#685BE1" transform="translate(255,322)"/>
<path d="M0 0 C-3.83325617 2.70582788 -6.32538149 3.32613618 -11 3 C-10 1 -10 1 -7.1875 -0.1875 C-4.14038924 -0.96421451 -2.86250637 -1.10096399 0 0 Z " fill="#8968E6" transform="translate(353,149)"/>
<path d="M0 0 C0.95465783 2.16967689 1.14401212 3.56328793 0.3984375 5.82421875 C-0.35870385 7.5684743 -1.17609198 9.28627131 -2 11 C-2.66 11 -3.32 11 -4 11 C-2.7874262 7.27566618 -1.49140021 3.62197194 0 0 Z " fill="#6F5BE1" transform="translate(295,234)"/>
<path d="M0 0 C-3.44069624 2.29379749 -4.72290301 3 -9 3 C-9 2.34 -9 1.68 -9 1 C-5.57367167 -0.61798838 -3.61944899 -1.34053666 0 0 Z " fill="#D951E3" transform="translate(445,389)"/>
<path d="M0 0 C-0.66 2.31 -1.32 4.62 -2 7 C-2.33 5.68 -2.66 4.36 -3 3 C-4.32 2.67 -5.64 2.34 -7 2 C-2.25 0 -2.25 0 0 0 Z " fill="#EFD9FD" transform="translate(262,307)"/>
<path d="M0 0 C1.32 0.33 2.64 0.66 4 1 C2.515 4.465 2.515 4.465 1 8 C0.67 8 0.34 8 0 8 C0 5.36 0 2.72 0 0 Z " fill="#A84CE0" transform="translate(263,296)"/>
<path d="M0 0 C0.95465783 2.16967689 1.14401212 3.56328793 0.3984375 5.82421875 C-0.35870385 7.5684743 -1.17609198 9.28627131 -2 11 C-2.66 11 -3.32 11 -4 11 C-2.95902388 7.13351728 -1.96301592 3.50538557 0 0 Z " fill="#7767E4" transform="translate(290,245)"/>
<path d="M0 0 C0 0.66 0 1.32 0 2 C-0.99 2.495 -0.99 2.495 -2 3 C-2.65555119 5.52733235 -2.65555119 5.52733235 -3 8 C-3.66 7.34 -4.32 6.68 -5 6 C-4.75 3.4375 -4.75 3.4375 -4 1 C-2 0 -2 0 0 0 Z " fill="#F5D9FC" transform="translate(500,386)"/>
</svg>
